# xmcd
#
# Track frame offsets: 
#        150
#        10964
#        24045
#        38207
#        51993
#        66303
#        80400
#        94062
#        107837
#        119707
#        132207
#        145769
#        158290
#        170706
#        183833
#        197202
#        210364
#        224166
#
# Disc length: 3163 seconds
#
# Revision: 0
# Processed by: cddbd v1.5.2PL0 Copyright (c) Steve Scherf et al.
# Submitted via: ExactAudioCopy v1.0b4
#
DISCID=fe0c5912
DTITLE=T-Bone Walker - The Natural Blues (LP)
DYEAR=1983
DGENRE=Blues
TTITLE0=Lonesome Women Blues
TTITLE1=Vacation Blues
TTITLE2=She Had To Let Me Down
TTITLE3=Don't Give Me The Runaround
TTITLE4=Hard Pain Blues
TTITLE5=So Blue Blues
TTITLE6=I'm Waiting For Your Call
TTITLE7=The Natural Blues
TTITLE8=That's Better For Me
TTITLE9=Inspiration Blues
TTITLE10=Description Blues
TTITLE11=I Want A Little Girl
TTITLE12=The Time Seems So Long
TTITLE13=Home Town Blues
TTITLE14=Misfortune Blues
TTITLE15=I'm Still In Love With Me
TTITLE16=She's The Sleepin'est Woman
TTITLE17=I'm Gonna Move You Out And Get Somebody Else
EXTD=
EXTT0=
EXTT1=
EXTT2=
EXTT3=
EXTT4=
EXTT5=
EXTT6=
EXTT7=
EXTT8=
EXTT9=
EXTT10=
EXTT11=
EXTT12=
EXTT13=
EXTT14=
EXTT15=
EXTT16=
EXTT17=
PLAYORDER=
